HIERARCHY
ROOT Hips
{
	OFFSET 0.000000 0.000000 0.000000
	CHANNELS 6 Xposition Yposition Zposition Zrotation Yrotation Xrotation 
	JOINT LHipJoint
	{
		OFFSET 0.000000 0.000000 0.000000
		CHANNELS 3 Zrotation Yrotation Xrotation
		JOINT LeftUpLeg
		{
			OFFSET 1.363060 -1.794630 0.839290
			CHANNELS 3 Zrotation Yrotation Xrotation
			JOINT LeftLeg
			{
				OFFSET 2.448110 -6.726130 0.000000
				CHANNELS 3 Zrotation Yrotation Xrotation
				JOINT LeftFoot
				{
					OFFSET 2.562200 -7.039590 0.000000
					CHANNELS 3 Zrotation Yrotation Xrotation
					JOINT LeftToeBase
					{
						OFFSET 0.157640 -0.433110 2.322550
						CHANNELS 3 Zrotation Yrotation Xrotation
						End Site
						{
							OFFSET 0.000000 0.000000 0.000000
						}
					}
				}
			}
		}
	}
	JOINT RHipJoint
	{
		OFFSET 0.000000 0.000000 0.000000
		CHANNELS 3 Zrotation Yrotation Xrotation
		JOINT RightUpLeg
		{
			OFFSET -1.305520 -1.794630 0.839290
			CHANNELS 3 Zrotation Yrotation Xrotation
			JOINT RightLeg
			{
				OFFSET -2.542530 -6.985550 0.000000
				CHANNELS 3 Zrotation Yrotation Xrotation
				JOINT RightFoot
				{
					OFFSET -2.568260 -7.056230 0.000000
					CHANNELS 3 Zrotation Yrotation Xrotation
					JOINT RightToeBase
					{
						OFFSET -0.164730 -0.452590 2.363150
						CHANNELS 3 Zrotation Yrotation Xrotation
						End Site
						{
							OFFSET 0.000000 0.000000 0.000000
						}
					}
				}
			}
		}
	}
	JOINT LowerBack
	{
		OFFSET 0.000000 0.000000 0.000000
		CHANNELS 3 Zrotation Yrotation Xrotation
		JOINT Spine
		{
			OFFSET 0.028270 2.035590 -0.193380
			CHANNELS 3 Zrotation Yrotation Xrotation
			JOINT Spine1
			{
				OFFSET 0.056720 2.048850 -0.042750
				CHANNELS 3 Zrotation Yrotation Xrotation
				JOINT Neck
				{
					OFFSET 0.000000 0.000000 0.000000
					CHANNELS 3 Zrotation Yrotation Xrotation
					JOINT Neck1
					{
						OFFSET -0.054170 1.746240 0.172020
						CHANNELS 3 Zrotation Yrotation Xrotation
						JOINT Head
						{
							OFFSET 0.104070 1.761360 -0.123970
							CHANNELS 3 Zrotation Yrotation Xrotation
							End Site
							{
								OFFSET 0.000000 0.000000 0.000000
							}
						}
					}
				}
				JOINT LeftShoulder
				{
					OFFSET 0.000000 0.000000 0.000000
					CHANNELS 3 Zrotation Yrotation Xrotation
					JOINT LeftArm
					{
						OFFSET 3.362410 1.200890 -0.311210
						CHANNELS 3 Zrotation Yrotation Xrotation
						JOINT LeftForeArm
						{
							OFFSET 4.983000 -0.000000 -0.000000
							CHANNELS 3 Zrotation Yrotation Xrotation
							JOINT LeftHand
							{
								OFFSET 3.483560 -0.000000 -0.000000
								CHANNELS 3 Zrotation Yrotation Xrotation
								JOINT LeftFingerBase
								{
									OFFSET 0.000000 0.000000 0.000000
									CHANNELS 3 Zrotation Yrotation Xrotation
									JOINT LeftHandIndex1
									{
										OFFSET 0.715260 -0.000000 -0.000000
										CHANNELS 3 Zrotation Yrotation Xrotation
										End Site
										{
											OFFSET 0.000000 0.000000 0.000000
										}
									}
								}
								JOINT LThumb
								{
									OFFSET 0.000000 0.000000 0.000000
									CHANNELS 3 Zrotation Yrotation Xrotation
									End Site
									{
										OFFSET 0.000000 0.000000 0.000000
									}
								}
							}
						}
					}
				}
				JOINT RightShoulder
				{
					OFFSET 0.000000 0.000000 0.000000
					CHANNELS 3 Zrotation Yrotation Xrotation
					JOINT RightArm
					{
						OFFSET -3.136600 1.374050 -0.404650
						CHANNELS 3 Zrotation Yrotation Xrotation
						JOINT RightForeArm
						{
							OFFSET -5.241900 -0.000000 -0.000000
							CHANNELS 3 Zrotation Yrotation Xrotation
							JOINT RightHand
							{
								OFFSET -3.444170 -0.000000 -0.000000
								CHANNELS 3 Zrotation Yrotation Xrotation
								JOINT RightFingerBase
								{
									OFFSET 0.000000 0.000000 0.000000
									CHANNELS 3 Zrotation Yrotation Xrotation
									JOINT RightHandIndex1
									{
										OFFSET -0.622530 -0.000000 -0.000000
										CHANNELS 3 Zrotation Yrotation Xrotation
										End Site
										{
											OFFSET 0.000000 0.000000 0.000000
										}
									}
								}
								JOINT RThumb
								{
									OFFSET 0.000000 0.000000 0.000000
									CHANNELS 3 Zrotation Yrotation Xrotation
									End Site
									{
										OFFSET 0.000000 0.000000 0.000000
									}
								}
							}
						}
					}
				}
			}
		}
	}
}
MOTION
Frames: 6
Frame Time: 0.008333
-8.648356 17.583640 -16.184719 -26.858003 86.268470 -27.103868 2.702049 -0.108258 0.354071 -15.595986 -14.096136 1.716928 -1.770211 8.895623 22.767169 -0.401329 11.967124 -24.214449 1.969800 -8.802900 -25.180800 -10.742338 0.485624 -6.070734 23.886466 -9.704728 11.791792 1.999862 -0.716451 3.739545 0.314417 -8.586911 -11.681367 -0.000200 0.084000 -0.230800 3.081630 0.816053 7.547403 1.455073 1.115476 -2.031620 1.471157 0.565690 -3.197669 -5.210152 -3.324599 -22.840536 3.159537 -3.053979 18.714975 1.268200 -1.549900 14.932000 5.377487 -7.355524 0.364623 -84.722688 -15.836573 46.960619 112.582500 -51.690422 -79.867181 -1.079467 0.083464 -48.390906 35.876536 22.050151 14.740200 -7.125000 0.000000 0.000000 8.664200 55.070100 2.154400 -6.372583 7.305859 1.155656 81.666969 17.260118 39.188894 -106.921069 53.268423 -73.026266 1.336378 -0.972612 -4.442741 -26.462510 -33.799992 15.653300 7.125000 0.000000 0.000000 5.495900 -65.316500 -2.702300 
-8.655011 17.585206 -16.175422 -28.322370 86.338293 -28.565249 2.756764 -0.091025 0.350152 -15.536599 -14.111016 1.664372 -1.760498 8.894773 22.773134 -0.376930 11.788936 -24.124589 1.885500 -8.623300 -24.623900 -10.691031 0.505696 -6.067346 23.912613 -9.814573 11.747636 1.998353 -0.723568 3.740512 0.312844 -8.581092 -11.690317 -0.000000 0.042700 -0.117300 3.088954 0.772951 7.605399 1.486203 1.055362 -1.984741 1.553588 0.534709 -3.147634 -5.090893 -3.229053 -22.856075 3.183607 -2.974566 18.604232 1.270200 -1.502700 14.860900 5.344225 -7.310290 0.367381 -84.586739 -16.775314 46.701627 111.789616 -51.838231 -79.173360 -1.087860 0.085598 -48.462382 35.918563 22.134979 14.809900 -7.125000 0.000000 0.000000 8.711600 55.164200 2.186300 -6.329308 7.254973 1.165058 81.175666 18.470864 39.222652 -105.560300 53.494771 -71.706154 1.353741 -0.985543 -4.695492 -26.572136 -33.964421 15.785300 7.125000 0.000000 0.000000 5.427100 -65.488000 -2.689900 
-8.661861 17.587065 -16.166125 -30.134755 86.400286 -30.360882 2.824167 -0.073068 0.342882 -15.470171 -14.121222 1.594951 -1.752663 8.891781 22.773370 -0.374078 11.690739 -23.990511 1.866000 -8.581200 -24.493900 -10.629076 0.526061 -6.059272 23.951791 -9.921040 11.683664 1.997874 -0.732229 3.740068 0.313290 -8.597823 -11.702710 -0.000000 0.025200 -0.069400 3.135427 0.741470 7.666363 1.510195 1.014058 -1.951915 1.614890 0.512485 -3.121421 -5.023662 -3.183923 -22.862001 3.248353 -2.948142 18.547547 1.298300 -1.476700 14.826900 5.305030 -7.262535 0.369486 -84.440774 -17.758242 46.437193 110.709541 -52.037146 -78.196583 -1.103782 0.088312 -48.770721 35.902913 22.186642 14.822800 -7.125000 0.000000 0.000000 8.697100 55.195400 2.189200 -6.286820 7.209193 1.176787 80.638028 19.589390 39.236373 -104.247087 53.701508 -70.430618 1.370233 -0.996833 -5.005719 -26.671942 -34.065802 15.884900 7.125000 0.000000 0.000000 5.332900 -65.593200 -2.656100 
-8.668417 17.589316 -16.156927 -32.289988 86.446595 -32.479900 2.902212 -0.057118 0.331044 -15.392640 -14.131123 1.504578 -1.745651 8.888337 22.773458 -0.388030 11.659889 -23.829801 1.899600 -8.653800 -24.718100 -10.558203 0.544031 -6.045420 24.008996 -10.013337 11.593172 1.998456 -0.742715 3.737507 0.315871 -8.634003 -11.712324 0.000000 0.029700 -0.081500 3.212712 0.730099 7.721544 1.535130 1.001784 -1.932597 1.671273 0.504111 -3.115770 -5.019892 -3.189405 -22.855478 3.340150 -2.969370 18.531812 1.346800 -1.473300 14.820600 5.263214 -7.214390 0.371403 -84.315632 -18.783826 46.174165 109.317468 -52.284136 -76.905645 -1.129015 0.090310 -49.292924 35.774876 22.278575 14.798700 -7.125000 0.000000 0.000000 8.556800 55.236500 2.162100 -6.246220 7.167812 1.188979 80.095863 20.599493 39.166817 -103.041549 53.881442 -69.266453 1.384937 -1.005832 -5.272828 -26.661256 -34.131570 15.902200 7.125000 0.000000 0.000000 5.363600 -65.638000 -2.677000 
-8.674681 17.591763 -16.148021 -34.958912 86.475714 -35.088761 2.994280 -0.045033 0.313086 -15.298078 -14.150370 1.392148 -1.737572 8.885860 22.780506 -0.408242 11.656233 -23.665217 1.953800 -8.769200 -25.076000 -10.474239 0.557734 -6.023758 24.087726 -10.092831 11.470592 1.999705 -0.755829 3.732545 0.319562 -8.679399 -11.715369 -0.000000 0.044400 -0.122100 3.317909 0.735334 7.766807 1.570899 1.013184 -1.924827 1.738872 0.506871 -3.125850 -5.065225 -3.227928 -22.837615 3.427909 -3.015968 18.540701 1.398100 -1.486000 14.829900 5.222494 -7.168091 0.374348 -84.226932 -19.844545 45.920773 107.631374 -52.565532 -75.312719 -1.164378 0.090025 -49.995771 35.538652 22.436186 14.756700 -7.125000 0.000000 0.000000 8.295700 55.317900 2.111900 -6.207782 7.127260 1.198898 79.617536 21.532748 38.982367 -101.929954 54.039765 -68.203450 1.398700 -1.013649 -5.404408 -26.491203 -34.209823 15.827900 7.125000 0.000000 0.000000 5.612200 -65.659000 -2.804100 
-8.680944 17.594503 -16.139801 -38.406767 86.492691 -38.456665 3.105999 -0.040181 0.286430 -15.184889 -14.191484 1.264509 -1.726776 8.883679 22.798416 -0.422661 11.634112 -23.517534 1.989600 -8.844400 -25.309800 -10.370379 0.563407 -5.990844 24.187038 -10.171255 11.314353 2.000956 -0.772637 3.725343 0.323068 -8.722357 -11.711208 -0.000100 0.055900 -0.153700 3.454989 0.743861 7.804801 1.622651 1.030632 -1.925405 1.822715 0.510989 -3.146427 -5.128205 -3.273966 -22.816085 3.478595 -3.060832 18.561847 1.431400 -1.504500 14.845000 5.185266 -7.125314 0.379908 -84.168684 -20.931580 45.686629 105.708898 -52.861621 -73.471341 -1.209204 0.086193 -50.852197 35.261686 22.624796 14.709500 -7.125000 0.000000 0.000000 7.992300 55.416000 2.053000 -6.171138 7.082027 1.204240 79.271035 22.456659 38.690645 -100.828038 54.191431 -67.157489 1.413665 -1.022917 -5.354626 -26.182112 -34.341441 15.691800 7.125000 0.000000 0.000000 6.073400 -65.700900 -3.041200 
